<svg width="50" height="51" viewBox="0 0 50 51" fill="none" xmlns="http://www.w3.org/2000/svg">
<path d="M41.5227 37.7518C41.5269 38.1448 41.4255 38.6587 41.32 39.0823C40.5825 42.0615 37.3075 45.4046 32.6977 45.1004C28.52 44.8254 25.1172 42.8198 25.1172 40.0073C25.1172 37.1948 28.5116 34.9143 32.6977 34.9143C36.8839 34.9143 41.4964 34.9393 41.5227 37.7518Z" fill="url(#paint0_linear_3617_1258)"/>
<path d="M32.6975 35.3865C30.4489 35.3865 25.3169 36.0087 24.1391 36.0087C22.0586 36.0087 20.3711 37.3143 20.3711 38.9254C20.3711 39.7004 20.7683 40.4004 21.4044 40.9226C21.4044 40.9226 22.8016 42.324 25.3183 41.6518C26.4197 41.3574 28.2114 39.1712 31.3655 38.824C32.9364 38.6504 35.8794 39.8657 41.0516 39.8949C41.2739 39.4171 41.3197 39.0851 41.3197 39.0851C41.3197 36.2699 36.8836 35.3865 32.6975 35.3865Z" fill="#8C7CFF"/>
<path d="M41.3194 39.0823C41.3194 39.0823 44.3527 38.4671 46.2388 35.9865C48.4375 33.0935 48.1486 29.9976 48.1486 29.9976C50.3763 25.831 47.4541 21.924 47.4541 21.924C47.1638 17.5254 44.4444 15.7032 44.4444 15.7032C42.6791 11.5073 38.7736 10.3796 38.7736 10.3796C35.7069 6.79207 30.2666 6.90735 30.2666 6.90735C30.2666 6.90735 25.1694 5.03929 18.1722 7.13929C17.0152 7.48652 13.1375 8.29624 10.3013 10.0323C1.36245 15.5046 0.686064 24.0379 0.811064 25.4254C1.50412 33.1796 6.9444 34.5685 10.4166 35.3782C11.2263 37.5768 14.2069 41.6282 19.5597 40.124C26.1569 38.9671 28.9347 36.999 30.5555 36.999C32.1763 36.999 36.6902 38.7351 41.3194 39.0823Z" fill="url(#paint1_linear_3617_1258)"/>
<path d="M24.634 26.6143C27.8673 24.8712 29.6201 25.0337 31.1673 25.174C31.659 25.2185 32.1243 25.2532 32.5951 25.2504C35.3507 25.1879 37.5826 24.0268 38.5701 22.9032C38.6834 22.7636 38.7382 22.5855 38.7231 22.4064C38.7079 22.2273 38.6241 22.0609 38.4891 21.9422C38.354 21.8236 38.1783 21.7617 37.9987 21.7697C37.8191 21.7777 37.6496 21.8549 37.5257 21.9851C36.7646 22.8518 34.8882 23.8087 32.5632 23.8615C32.1465 23.874 31.7285 23.8323 31.2951 23.7921C29.6354 23.6379 27.5743 23.449 23.9743 25.3921C23.0507 25.8907 21.784 26.0754 20.4118 26.2143C17.3604 21.8101 19.1965 17.974 19.7215 17.0601C19.7729 17.0629 19.8229 17.0796 19.8757 17.0796C20.4312 17.0796 20.9896 16.9435 21.4951 16.6573C21.6491 16.5636 21.7606 16.4136 21.8061 16.2391C21.8515 16.0646 21.8272 15.8793 21.7385 15.7223C21.6497 15.5654 21.5034 15.4491 21.3305 15.3981C21.1575 15.3471 20.9715 15.3654 20.8118 15.449C20.3749 15.6895 19.8633 15.7564 19.3792 15.6361C18.8951 15.5159 18.4743 15.2174 18.2007 14.8004C18.0974 14.6548 17.942 14.5545 17.7667 14.5204C17.5915 14.4864 17.4098 14.5211 17.2595 14.6174C17.1092 14.7138 17.0017 14.8643 16.9595 15.0378C16.9172 15.2113 16.9434 15.3943 17.0326 15.549C17.3618 16.0643 17.8257 16.4518 18.3493 16.7115C17.6257 18.181 16.2521 22.0448 18.866 26.3657C17.0271 26.5462 15.1854 26.806 13.7437 27.7351C12.7305 28.399 11.8466 29.242 11.1354 30.2226C10.2618 30.0726 7.06318 29.2851 6.50484 25.7351C6.85207 25.4657 7.13262 25.1101 7.30623 24.6712C7.33979 24.5864 7.35632 24.4958 7.35487 24.4046C7.35342 24.3134 7.33402 24.2234 7.29778 24.1397C7.26154 24.056 7.20916 23.9803 7.14365 23.9168C7.07814 23.8533 7.00077 23.8034 6.91596 23.7698C6.83114 23.7363 6.74055 23.7198 6.64935 23.7212C6.55815 23.7227 6.46813 23.7421 6.38443 23.7783C6.30073 23.8145 6.22499 23.8669 6.16152 23.9324C6.09806 23.9979 6.04813 24.0753 6.01457 24.1601C5.96204 24.3061 5.87847 24.439 5.7696 24.5495C5.66074 24.6601 5.52918 24.7457 5.38401 24.8004C5.2369 24.8493 5.08099 24.8659 4.92689 24.8491C4.77278 24.8324 4.6241 24.7826 4.49096 24.7032C4.41125 24.6589 4.3236 24.6307 4.233 24.6202C4.1424 24.6098 4.05063 24.6173 3.96293 24.6423C3.78581 24.6928 3.63602 24.8117 3.54651 24.9726C3.457 25.1336 3.4351 25.3235 3.48563 25.5007C3.53616 25.6778 3.65498 25.8276 3.81596 25.9171C4.2104 26.1365 4.63262 26.2476 5.05207 26.2476C5.10346 26.2476 5.15207 26.224 5.20346 26.2212C5.86457 29.5726 8.51318 31.0448 10.3868 31.4907C10.1415 32.0127 9.98605 32.5724 9.92707 33.1462C9.91088 33.3297 9.96822 33.512 10.0865 33.6532C10.2047 33.7944 10.3742 33.8828 10.5576 33.899L10.6201 33.9018C10.7937 33.9018 10.961 33.8367 11.089 33.7195C11.217 33.6023 11.2965 33.4414 11.3118 33.2685C11.4618 31.5837 13.0687 29.824 14.4965 28.9004C15.8354 28.0379 17.7951 27.856 19.6923 27.6796C21.5326 27.5115 23.2715 27.3504 24.634 26.6143ZM42.5035 24.5254C42.4597 24.6055 42.4321 24.6934 42.4223 24.7841C42.4125 24.8748 42.4207 24.9666 42.4463 25.0542C42.472 25.1417 42.5147 25.2234 42.5719 25.2945C42.6291 25.3656 42.6998 25.4247 42.7798 25.4685C42.8599 25.5122 42.9478 25.5398 43.0385 25.5496C43.1293 25.5594 43.221 25.5512 43.3086 25.5256C43.4855 25.4737 43.6345 25.3538 43.7229 25.1921C43.7493 25.1448 46.2812 20.4018 41.541 17.2143C41.3881 17.1115 41.2007 17.0737 41.0199 17.1091C40.8391 17.1445 40.6798 17.2503 40.5771 17.4032C40.4743 17.556 40.4365 17.7435 40.4719 17.9242C40.5073 18.105 40.6131 18.2643 40.766 18.3671C44.4382 20.8365 42.584 24.3754 42.5035 24.5254ZM13.716 13.3115C13.8262 13.3119 13.9349 13.2858 14.033 13.2356C14.1311 13.1853 14.2157 13.1123 14.2798 13.0226C16.2937 10.2212 19.0826 11.1796 19.2007 11.224C19.3717 11.2805 19.558 11.2683 19.7203 11.1899C19.8825 11.1116 20.0079 10.9733 20.0701 10.8043C20.1323 10.6352 20.1263 10.4486 20.0535 10.2839C19.9807 10.1191 19.8467 9.98907 19.6798 9.92124C18.3465 9.42679 15.2673 9.27124 13.1521 12.2129C13.0778 12.3167 13.0336 12.4388 13.0242 12.5661C13.0148 12.6933 13.0407 12.8207 13.099 12.9342C13.1572 13.0477 13.2456 13.1429 13.3545 13.2095C13.4633 13.2761 13.5884 13.3114 13.716 13.3115ZM31.8715 10.6893C34.9618 10.4379 36.3673 12.6782 36.4312 12.7837C36.5246 12.9427 36.6773 13.058 36.8557 13.1044C36.9441 13.1273 37.0361 13.1327 37.1265 13.1201C37.2169 13.1075 37.3039 13.0772 37.3826 13.031C37.4613 12.9847 37.5301 12.9234 37.5852 12.8506C37.6402 12.7778 37.6803 12.6948 37.7033 12.6065C37.7262 12.5181 37.7316 12.4261 37.719 12.3357C37.7064 12.2453 37.6761 12.1583 37.6298 12.0796C37.5548 11.9532 35.7687 8.99901 31.7632 9.30457C31.6723 9.31168 31.5836 9.33664 31.5023 9.378C31.4211 9.41937 31.3487 9.47634 31.2895 9.54566C31.1698 9.68566 31.1106 9.86747 31.125 10.0511C31.1393 10.2347 31.2261 10.4051 31.3661 10.5248C31.5061 10.6445 31.6879 10.7037 31.8715 10.6893ZM44.5798 30.9823C44.2382 30.9629 43.8618 31.2337 43.8312 31.6171C43.8285 31.6421 43.6076 34.0046 41.1785 34.8032C41.0196 34.8531 40.8841 34.9585 40.7966 35.1001C40.7091 35.2418 40.6755 35.4102 40.702 35.5745C40.7284 35.7389 40.8132 35.8883 40.9407 35.9953C41.0682 36.1023 41.23 36.1598 41.3965 36.1573C41.4701 36.1574 41.5433 36.1456 41.6132 36.1226C44.9076 35.0421 45.2048 31.8671 45.216 31.7323C45.2306 31.5486 45.1719 31.3666 45.0527 31.2261C44.9335 31.0856 44.7635 30.9979 44.5798 30.9823Z" fill="url(#paint2_linear_3617_1258)"/>
<path d="M10.2038 24.2337C10.1765 24.3228 10.1674 24.4165 10.177 24.5092C10.1867 24.6019 10.2149 24.6917 10.26 24.7733C10.3051 24.8549 10.3661 24.9265 10.4395 24.984C10.5129 25.0414 10.5971 25.0836 10.6871 25.1078C10.777 25.1321 10.871 25.1379 10.9633 25.1251C11.0556 25.1123 11.1444 25.081 11.2244 25.0331C11.3043 24.9853 11.3739 24.9218 11.4288 24.8465C11.4837 24.7712 11.5229 24.6856 11.544 24.5948C11.6778 24.1136 11.9887 23.7009 12.4144 23.4396C12.8401 23.1783 13.3489 23.0879 13.8385 23.1865C13.9278 23.2052 14.0199 23.2061 14.1095 23.1892C14.1991 23.1723 14.2846 23.138 14.3609 23.0881C14.4373 23.0381 14.503 22.9737 14.5545 22.8983C14.6059 22.823 14.642 22.7383 14.6607 22.649C14.6794 22.5597 14.6803 22.4676 14.6634 22.378C14.6466 22.2884 14.6122 22.2029 14.5623 22.1266C14.5123 22.0502 14.4479 21.9845 14.3726 21.933C14.2972 21.8816 14.2125 21.8455 14.1232 21.8268C13.5452 21.7095 12.9463 21.7508 12.3899 21.9462C10.7704 19.1768 11.0857 16.4462 11.0899 16.4171C11.1136 16.2347 11.0643 16.0503 10.9527 15.9041C10.8411 15.7579 10.6762 15.6617 10.4941 15.6365C10.3121 15.6131 10.1283 15.6622 9.98229 15.7732C9.83625 15.8841 9.73971 16.048 9.71349 16.2296C9.69544 16.3643 9.32461 19.4462 11.1899 22.6379C10.7137 23.0632 10.3712 23.6176 10.2038 24.2337ZM25.7302 20.8032C26.0074 20.5509 26.3698 20.4128 26.7447 20.4167C27.1195 20.4206 27.479 20.5661 27.751 20.824C27.8836 20.9515 28.0612 21.0215 28.2451 21.0186C28.429 21.0157 28.6044 20.9403 28.7329 20.8087C28.8613 20.6767 28.932 20.499 28.9293 20.3149C28.9267 20.1307 28.8511 19.9552 28.719 19.8268C28.4053 19.5283 28.0263 19.3072 27.6121 19.181C28.0232 17.7698 27.8607 17.1435 27.4788 15.9698C27.4032 15.7402 27.3305 15.5096 27.2607 15.2782L27.219 15.1393C26.7135 13.4615 26.3788 12.3546 27.3399 10.7921C27.4364 10.6351 27.4666 10.4463 27.4239 10.2671C27.3812 10.0879 27.269 9.93302 27.1121 9.83651C26.9552 9.74 26.7664 9.70978 26.5872 9.7525C26.408 9.79522 26.2531 9.90737 26.1565 10.0643C24.8677 12.1587 25.3413 13.7268 25.8899 15.5421L25.9315 15.681C26.0135 15.9504 26.0885 16.1865 26.1579 16.399C26.501 17.456 26.6052 17.8101 26.1857 19.0879C25.6612 19.1833 25.1746 19.4261 24.7829 19.7879C24.6531 19.9147 24.578 20.0872 24.5738 20.2686C24.5696 20.45 24.6365 20.6258 24.7603 20.7585C24.8841 20.8912 25.0549 20.9702 25.2361 20.9785C25.4174 20.9868 25.5947 20.9239 25.7302 20.8032ZM34.5704 16.6573C34.9829 16.6586 35.3904 16.568 35.7635 16.3921C35.9302 16.3136 36.0589 16.1721 36.1212 15.9988C36.1836 15.8255 36.1746 15.6344 36.0961 15.4678C36.0177 15.3011 35.8762 15.1724 35.7029 15.11C35.5295 15.0476 35.3385 15.0567 35.1718 15.1351C34.8304 15.2911 34.4427 15.3124 34.0863 15.1947C33.7298 15.077 33.431 14.829 33.2496 14.5004C33.2083 14.417 33.1507 14.3427 33.0801 14.2819C33.0096 14.2212 32.9275 14.1753 32.8389 14.1469C32.7502 14.1185 32.6567 14.1083 32.564 14.1167C32.4713 14.1252 32.3813 14.1522 32.2992 14.1962C32.2171 14.2401 32.1448 14.3001 32.0864 14.3726C32.028 14.4451 31.9847 14.5286 31.9592 14.6182C31.9337 14.7077 31.9265 14.8015 31.938 14.8938C31.9495 14.9862 31.9794 15.0754 32.026 15.156C32.276 15.6226 32.6482 15.9907 33.0815 16.2462C32.3357 18.0587 32.7593 19.9837 33.1052 21.0046C33.1316 21.0942 33.1759 21.1775 33.2353 21.2496C33.2947 21.3216 33.368 21.381 33.4509 21.4241C33.5338 21.4672 33.6245 21.4931 33.7176 21.5003C33.8107 21.5075 33.9043 21.4959 33.9929 21.466C34.0814 21.4362 34.163 21.3888 34.2328 21.3268C34.3026 21.2647 34.3591 21.1892 34.399 21.1047C34.4389 21.0203 34.4614 20.9286 34.4651 20.8353C34.4688 20.742 34.4536 20.6488 34.4204 20.5615C34.1871 19.8698 33.7343 18.1226 34.4177 16.6365C34.4704 16.6393 34.519 16.6573 34.5704 16.6573ZM41.2329 29.7532C41.2276 29.662 41.2043 29.5727 41.1643 29.4906C41.1242 29.4085 41.0683 29.3351 40.9997 29.2748C40.9311 29.2145 40.8512 29.1684 40.7646 29.1391C40.6781 29.1099 40.5866 29.0982 40.4954 29.1046C40.1624 29.1276 39.8281 29.0846 39.5118 28.978C39.1954 28.8715 38.9032 28.7035 38.6519 28.4837C38.4007 28.264 38.1953 27.9967 38.0476 27.6974C37.8999 27.398 37.8128 27.0724 37.7913 26.7393C37.7757 26.5567 37.6897 26.3873 37.5516 26.2668C37.4135 26.1463 37.234 26.0842 37.051 26.0935C36.8674 26.1066 36.6965 26.1919 36.5756 26.3305C36.4546 26.4692 36.3933 26.6501 36.4052 26.8337C36.4621 27.6532 36.7746 28.3921 37.2496 28.9935C36.1329 30.3073 34.6704 30.681 33.8552 30.7768C33.1343 30.8629 32.5038 30.7893 31.7746 30.7032C31.1066 30.6268 30.351 30.5393 29.4163 30.5671L29.4093 30.5685C29.3815 30.1712 29.2871 29.5921 28.9857 29.1101C28.8821 28.9674 28.7282 28.8694 28.555 28.8358C28.3819 28.8022 28.2025 28.8357 28.053 28.9294C27.9036 29.023 27.7953 29.17 27.7501 29.3404C27.7048 29.5109 27.726 29.6922 27.8093 29.8476C27.9954 30.1462 28.0302 30.6226 28.0302 30.8546C27.3302 31.106 26.7246 31.4754 26.1774 31.8323C25.1996 32.4685 24.4288 32.9712 23.269 32.7101C22.219 32.4698 21.1677 32.4212 20.276 32.5462C20.1371 32.1976 19.9177 31.781 19.5788 31.4601C19.4449 31.3336 19.2662 31.2654 19.082 31.2706C18.8979 31.2759 18.7234 31.354 18.5968 31.4879C18.4703 31.6218 18.4021 31.8005 18.4073 31.9846C18.4126 32.1688 18.4907 32.3433 18.6246 32.4698C18.744 32.5823 18.8385 32.7462 18.9149 32.9101C17.3829 33.5407 16.6149 34.5948 16.5788 34.6462C16.5051 34.7499 16.4614 34.8719 16.4524 34.9988C16.4435 35.1257 16.4696 35.2526 16.528 35.3657C16.5864 35.4787 16.6747 35.5735 16.7834 35.6396C16.8921 35.7058 17.0168 35.7407 17.144 35.7407C17.2538 35.741 17.3621 35.7153 17.4601 35.6658C17.5581 35.6164 17.643 35.5445 17.7079 35.456C17.7149 35.4448 18.4774 34.424 19.9815 34.0115C20.7593 33.7976 21.8746 33.8157 22.9621 34.0629C23.2663 34.1323 23.5482 34.156 23.8218 34.1601C23.951 34.4629 24.001 34.8226 24.0079 34.956C24.0182 35.133 24.0956 35.2994 24.2244 35.4212C24.3532 35.543 24.5237 35.6111 24.701 35.6115L24.7385 35.6101C24.9218 35.6004 25.0937 35.5186 25.2168 35.3825C25.3399 35.2463 25.4041 35.067 25.3954 34.8837C25.3723 34.5602 25.3117 34.2405 25.2149 33.931C25.8552 33.699 26.4121 33.3365 26.9357 32.9962C27.7302 32.4782 28.4816 31.9879 29.4635 31.956C30.2857 31.9268 30.9635 32.006 31.6177 32.0823C32.276 32.1587 32.9232 32.2087 33.6371 32.1671C33.7635 32.5185 33.7538 32.9879 33.7343 33.1448C33.7226 33.2426 33.7316 33.3418 33.7609 33.4359C33.7902 33.5299 33.839 33.6167 33.9042 33.6905C33.9694 33.7644 34.0495 33.8236 34.1391 33.8643C34.2288 33.905 34.3261 33.9263 34.4246 33.9268C34.593 33.9265 34.7555 33.8651 34.882 33.754C35.0084 33.6429 35.0902 33.4896 35.1121 33.3226C35.163 32.8671 35.1353 32.4063 35.0302 31.9601C36.2973 31.6239 37.4329 30.9116 38.2871 29.9171C38.9756 30.3424 39.7795 30.5428 40.5871 30.4907C40.6779 30.4847 40.7667 30.4608 40.8483 30.4205C40.9299 30.3802 41.0028 30.3242 41.0628 30.2557C41.1228 30.1872 41.1687 30.1076 41.1979 30.0214C41.2271 29.9351 41.239 29.844 41.2329 29.7532Z" fill="url(#paint3_linear_3617_1258)"/>
<defs>
<linearGradient id="paint0_linear_3617_1258" x1="25.5007" y1="40.0816" x2="41.6507" y2="40.0816" gradientUnits="userSpaceOnUse">
<stop stop-color="#FF7170"/>
<stop offset="1" stop-color="#FFE57F"/>
</linearGradient>
<linearGradient id="paint1_linear_3617_1258" x1="1.92528" y1="23.5135" x2="49.3614" y2="23.5135" gradientUnits="userSpaceOnUse">
<stop stop-color="#4CA5FF"/>
<stop offset="1" stop-color="#B673F8"/>
</linearGradient>
<linearGradient id="paint2_linear_3617_1258" x1="4.43517" y1="22.89" x2="45.5435" y2="22.89" gradientUnits="userSpaceOnUse">
<stop stop-color="#FF7170"/>
<stop offset="1" stop-color="#FFE57F"/>
</linearGradient>
<linearGradient id="paint3_linear_3617_1258" x1="10.4097" y1="22.9017" x2="41.4804" y2="22.9017" gradientUnits="userSpaceOnUse">
<stop stop-color="#FF7170"/>
<stop offset="1" stop-color="#FFE57F"/>
</linearGradient>
</defs>
</svg>
