<svg width="42" height="42" viewBox="0 0 42 42" fill="none" xmlns="http://www.w3.org/2000/svg">
<path d="M23.2076 12.8958L26.1556 15.8438C27.5099 17.198 28.5842 18.8057 29.3172 20.5751C30.0502 22.3445 30.4274 24.241 30.4274 26.1563C30.4274 28.0715 30.0502 29.968 29.3172 31.7374C28.5842 33.5068 27.5099 35.1146 26.1556 36.4688L25.4181 37.2042C22.683 39.9392 18.9735 41.4758 15.1056 41.4758C11.2376 41.4758 7.52811 39.9392 4.79306 37.2042C2.05802 34.4691 0.521484 30.7596 0.521484 26.8917C0.521484 23.0237 2.05802 19.3142 4.79306 16.5792L7.74098 19.5271C6.76675 20.4928 5.99286 21.6415 5.46375 22.9071C4.93463 24.1727 4.66071 25.5304 4.6577 26.9022C4.6547 28.2739 4.92267 29.6328 5.44624 30.9007C5.96981 32.1687 6.73866 33.3207 7.70865 34.2907C8.67864 35.2607 9.83067 36.0295 11.0986 36.5531C12.3665 37.0766 13.7254 37.3446 15.0972 37.3416C16.4689 37.3386 17.8266 37.0647 19.0922 36.5356C20.3578 36.0065 21.5065 35.2326 22.4722 34.2583L23.2097 33.5208C25.1625 31.5674 26.2596 28.9184 26.2596 26.1563C26.2596 23.3941 25.1625 20.7451 23.2097 18.7917L20.2618 15.8438L23.2097 12.8979L23.2076 12.8958ZM37.2035 25.4188L34.2576 22.4729C35.2319 21.5072 36.0058 20.3585 36.5349 19.0929C37.064 17.8273 37.3379 16.4696 37.3409 15.0978C37.3439 13.7261 37.0759 12.3672 36.5524 11.0993C36.0288 9.83136 35.26 8.67934 34.29 7.70934C33.32 6.73935 32.168 5.9705 30.9 5.44694C29.6321 4.92337 28.2732 4.65539 26.9015 4.6584C25.5297 4.6614 24.172 4.93532 22.9064 5.46444C21.6408 5.99356 20.4921 6.76744 19.5264 7.74167L18.7889 8.47917C16.8361 10.4326 15.739 13.0816 15.739 15.8438C15.739 18.6059 16.8361 21.2549 18.7889 23.2083L21.7368 26.1563L18.7889 29.1021L15.8431 26.1563C14.4887 24.8021 13.4144 23.1943 12.6814 21.4249C11.9484 19.6555 11.5712 17.759 11.5712 15.8438C11.5712 13.9285 11.9484 12.032 12.6814 10.2626C13.4144 8.49318 14.4887 6.88546 15.8431 5.53126L16.5806 4.79584C19.3156 2.06079 23.0251 0.524261 26.8931 0.524261C30.761 0.524261 34.4705 2.06079 37.2056 4.79584C39.9406 7.53088 41.4771 11.2404 41.4771 15.1083C41.4771 18.9763 39.9406 22.6858 37.2056 25.4208L37.2035 25.4188Z" fill="url(#paint0_linear_3617_1257)"/>
<defs>
<linearGradient id="paint0_linear_3617_1257" x1="1.47889" y1="21.2592" x2="41.7963" y2="21.2592" gradientUnits="userSpaceOnUse">
<stop stop-color="#4CA5FF"/>
<stop offset="1" stop-color="#B673F8"/>
</linearGradient>
</defs>
</svg>
