<svg width="22" height="21" viewBox="0 0 22 21" fill="none" xmlns="http://www.w3.org/2000/svg">
<path fill-rule="evenodd" clip-rule="evenodd" d="M11.0001 0.416016C5.43133 0.416016 0.916748 4.9306 0.916748 10.4993C0.916748 16.0681 5.43133 20.5827 11.0001 20.5827C16.5688 20.5827 21.0834 16.0681 21.0834 10.4993C21.0834 4.9306 16.5688 0.416016 11.0001 0.416016ZM15.3707 8.79435C15.4512 8.70235 15.5125 8.59519 15.551 8.47917C15.5894 8.36315 15.6043 8.2406 15.5947 8.11875C15.5851 7.9969 15.5512 7.8782 15.495 7.76963C15.4389 7.66107 15.3616 7.56483 15.2677 7.48658C15.1738 7.40833 15.0652 7.34965 14.9483 7.31399C14.8313 7.27833 14.7085 7.26641 14.5869 7.27894C14.4653 7.29147 14.3475 7.32818 14.2403 7.38693C14.1331 7.44568 14.0387 7.52526 13.9627 7.62102L10.0211 12.3501L7.9815 10.3096C7.80861 10.1426 7.57706 10.0502 7.33671 10.0523C7.09637 10.0544 6.86646 10.1508 6.6965 10.3208C6.52654 10.4907 6.43013 10.7206 6.42805 10.961C6.42596 11.2013 6.51835 11.4329 6.68533 11.6058L9.43533 14.3558C9.5254 14.4458 9.63323 14.516 9.75196 14.5621C9.87069 14.6081 9.9977 14.6289 10.1249 14.6231C10.2521 14.6173 10.3767 14.5851 10.4908 14.5285C10.6049 14.4719 10.7059 14.3922 10.7874 14.2943L15.3707 8.79435Z" fill="#00FFB2"/>
</svg>
