<svg width="50" height="36" viewBox="0 0 50 36" fill="none" xmlns="http://www.w3.org/2000/svg">
<path d="M26.8737 34.2248L17.2018 34.0441C14.0702 33.9811 10.9309 34.1068 7.86076 33.4542C3.19036 32.4792 2.8595 27.6985 2.51328 23.6884C2.03623 18.0507 2.22091 12.3106 3.12117 6.71998C3.62939 3.58304 5.62947 1.7112 8.72252 1.50751C19.1638 0.768284 29.6746 0.855891 40.0927 1.20077C41.193 1.23238 42.3009 1.40518 43.3858 1.60187C48.7413 2.5612 48.8719 7.97881 49.2191 12.5394C49.5653 17.1471 49.4191 21.7784 48.7574 26.3547C48.2265 30.1438 47.2107 33.3213 42.9241 33.628C37.5533 34.0291 32.3057 34.352 26.9197 34.2492C26.92 34.2248 26.889 34.2248 26.8737 34.2248ZM21.1875 24.632C25.2349 22.2572 29.2051 19.922 33.2293 17.5632C29.1744 15.1884 25.2118 12.8532 21.1875 10.4943V24.632Z" fill="url(#paint0_linear_3617_1282)"/>
<defs>
<linearGradient id="paint0_linear_3617_1282" x1="3.35985" y1="17.8168" x2="49.768" y2="17.8168" gradientUnits="userSpaceOnUse">
<stop stop-color="#4CA5FF"/>
<stop offset="1" stop-color="#B673F8"/>
</linearGradient>
</defs>
</svg>
