<svg width="30" height="30" viewBox="0 0 30 30" fill="none" xmlns="http://www.w3.org/2000/svg">
<path d="M26.6667 0H3.33333C1.5 0 0 1.5 0 3.33333V26.6667C0 28.5 1.5 30 3.33333 30H26.6667C28.5 30 30 28.5 30 26.6667V3.33333C30 1.5 28.5 0 26.6667 0ZM11.6667 23.8333L9 25C6.5 22.5 5 18.8333 5 15C5 11.1667 6.5 7.5 9 5L11.6667 6.16667C9.5 8.16667 8.33333 11.5 8.33333 15C8.33333 18.5 9.5 21.8333 11.6667 23.8333ZM21 25L18.3333 23.8333C20.5 21.6667 21.6667 18.5 21.6667 15C21.6667 11.5 20.5 8.16667 18.3333 6.16667L21 5C23.5 7.5 25 11.1667 25 15C25 18.8333 23.5 22.5 21 25Z" fill="url(#paint0_linear_448_1782)"/>
<defs>
<linearGradient id="paint0_linear_448_1782" x1="0.701299" y1="15.1899" x2="30.2338" y2="15.1899" gradientUnits="userSpaceOnUse">
<stop stop-color="#4CA5FF"/>
<stop offset="1" stop-color="#B673F8"/>
</linearGradient>
</defs>
</svg>

