<svg width="51" height="40" viewBox="0 0 51 40" fill="none" xmlns="http://www.w3.org/2000/svg">
<path d="M16.3905 27.5C16.2021 27.5 16.0138 27.5273 15.8341 27.5852C14.8128 27.9141 13.7387 28.125 12.6078 28.125C11.477 28.125 10.4029 27.9141 9.38081 27.5852C9.20113 27.5273 9.01358 27.5 8.82524 27.5C3.93464 27.5 -0.0268547 31.4438 -0.000849256 36.2984C0.0101834 38.35 1.71157 40 3.78176 40H21.4339C23.5041 40 25.2055 38.35 25.2165 36.2984C25.2425 31.4438 21.2811 27.5 16.3905 27.5ZM12.6078 25C16.7861 25 20.1731 21.6422 20.1731 17.5C20.1731 13.3578 16.7861 10 12.6078 10C8.42964 10 5.04263 13.3578 5.04263 17.5C5.04263 21.6422 8.42964 25 12.6078 25ZM46.6513 0H16.3905C14.3045 0 12.6078 1.73828 12.6078 3.87422V7.5C14.4534 7.5 16.1619 8.02969 17.6513 8.89062V5H45.3904V27.5H40.347V22.5H30.26V27.5H24.252C25.7571 28.8039 26.862 30.5258 27.3797 32.5H46.6513C48.7373 32.5 50.4339 30.7617 50.4339 28.6258V3.87422C50.4339 1.73828 48.7373 0 46.6513 0Z" fill="url(#paint0_linear_448_1791)"/>
<defs>
<linearGradient id="paint0_linear_448_1791" x1="1.17802" y1="20.2531" x2="50.8269" y2="20.2531" gradientUnits="userSpaceOnUse">
<stop stop-color="#4CA5FF"/>
<stop offset="1" stop-color="#B673F8"/>
</linearGradient>
</defs>
</svg>

