<svg width="28" height="36" viewBox="0 0 28 36" fill="none" xmlns="http://www.w3.org/2000/svg">
<path d="M15.75 12.6H25.375L15.75 2.7V12.6ZM3.5 0H17.5L28 10.8V32.4C28 33.3548 27.6313 34.2705 26.9749 34.9456C26.3185 35.6207 25.4283 36 24.5 36H3.5C2.57174 36 1.6815 35.6207 1.02513 34.9456C0.368749 34.2705 0 33.3548 0 32.4V3.6C0 1.602 1.5575 0 3.5 0ZM17.5 32.4V30.6C17.5 28.206 12.8275 27 10.5 27C8.1725 27 3.5 28.206 3.5 30.6V32.4H17.5ZM10.5 18C9.57174 18 8.6815 18.3793 8.02513 19.0544C7.36875 19.7295 7 20.6452 7 21.6C7 22.5548 7.36875 23.4705 8.02513 24.1456C8.6815 24.8207 9.57174 25.2 10.5 25.2C11.4283 25.2 12.3185 24.8207 12.9749 24.1456C13.6313 23.4705 14 22.5548 14 21.6C14 20.6452 13.6313 19.7295 12.9749 19.0544C12.3185 18.3793 11.4283 18 10.5 18Z" fill="url(#paint0_linear_450_841)"/>
<defs>
<linearGradient id="paint0_linear_450_841" x1="0.654545" y1="18.2278" x2="28.2182" y2="18.2278" gradientUnits="userSpaceOnUse">
<stop stop-color="#4CA5FF"/>
<stop offset="1" stop-color="#B673F8"/>
</linearGradient>
</defs>
</svg>

