<svg width="38" height="28" viewBox="0 0 38 28" fill="none" xmlns="http://www.w3.org/2000/svg">
<path d="M18.9154 18.2327C24.634 18.2327 29.5169 19.1393 29.5169 22.7672C29.5169 26.3937 24.6654 27.3333 18.9154 27.3333C13.1967 27.3333 8.31381 26.4267 8.31381 22.8003C8.31381 19.1723 13.1654 18.2327 18.9154 18.2327ZM28.0588 16.0481C30.2451 16.0076 32.5955 16.3078 33.464 16.5209C35.3041 16.8827 36.5144 17.6212 37.0158 18.6944C37.4396 19.5755 37.4396 20.5977 37.0158 21.4773C36.2487 23.1419 33.7759 23.6763 32.8149 23.8144C32.6164 23.8444 32.4567 23.6718 32.4776 23.4721C32.9686 18.8595 29.0631 16.6725 28.0528 16.1697C28.0095 16.1472 28.0006 16.1127 28.0051 16.0916C28.008 16.0766 28.0259 16.0526 28.0588 16.0481ZM9.5313 16.045L9.94299 16.0487C9.97582 16.0532 9.99224 16.0772 9.99522 16.0907C9.9997 16.1133 9.99075 16.1463 9.94896 16.1703C8.93716 16.6731 5.03171 18.8601 5.52269 23.4712C5.54358 23.6724 5.38539 23.8435 5.18691 23.815C4.22585 23.6769 1.75304 23.1425 0.985979 21.4779C0.560663 20.5968 0.560663 19.5761 0.985979 18.695C1.4874 17.6218 2.6962 16.8833 4.53625 16.52C5.40628 16.3084 7.75522 16.0082 9.94299 16.0487L9.5313 16.045ZM18.9154 0.666656C22.8089 0.666656 25.9309 3.80377 25.9309 7.72141C25.9309 11.6375 22.8089 14.7777 18.9154 14.7777C15.0219 14.7777 11.8999 11.6375 11.8999 7.72141C11.8999 3.80377 15.0219 0.666656 18.9154 0.666656ZM28.4393 1.84315C32.2 1.84315 35.1534 5.40205 34.1475 9.36622C33.4685 12.035 31.0106 13.8077 28.2722 13.7357C27.9976 13.7282 27.7275 13.7026 27.4663 13.6576C27.2768 13.6246 27.1813 13.4099 27.2887 13.2508C28.3334 11.7048 28.9288 9.84504 28.9288 7.84869C28.9288 5.76529 28.2782 3.82298 27.1485 2.23041C27.1126 2.18088 27.0858 2.10433 27.1216 2.04729C27.1514 2.00076 27.2067 1.97674 27.2589 1.96473C27.6394 1.88668 28.0304 1.84315 28.4393 1.84315ZM9.56021 1.843C9.96911 1.843 10.3601 1.88653 10.7421 1.96458C10.7929 1.97659 10.8496 2.00211 10.8794 2.04714C10.9138 2.10417 10.8884 2.18073 10.8526 2.23026C9.72287 3.82283 9.07221 5.76514 9.07221 7.84854C9.07221 9.84489 9.66766 11.7046 10.7123 13.2507C10.8197 13.4098 10.7242 13.6244 10.5347 13.6575C10.2721 13.704 10.0034 13.728 9.72884 13.7355C6.9904 13.8076 4.53252 12.0349 3.85351 9.36607C2.84618 5.4019 5.79952 1.843 9.56021 1.843Z" fill="url(#paint0_linear_308_834)"/>
<defs>
<linearGradient id="paint0_linear_308_834" x1="1.52414" y1="14.1688" x2="37.6194" y2="14.1688" gradientUnits="userSpaceOnUse">
<stop stop-color="#4CA5FF"/>
<stop offset="1" stop-color="#B673F8"/>
</linearGradient>
</defs>
</svg>

